<?xml version="1.0" encoding="UTF-8" standalone="no"?>
<!DOCTYPE svg PUBLIC "-//W3C//DTD SVG 1.1//EN" "http://www.w3.org/Graphics/SVG/1.1/DTD/svg11.dtd">
<svg xmlns="http://www.w3.org/2000/svg" version="1.1" viewBox="0.00 0.00 2000.00 717.00">
<path fill="#02b192" d="
  M 1601.37 0.00
  L 1626.48 0.00
  Q 1643.26 1.97 1654.95 8.07
  C 1698.45 30.75 1712.72 78.13 1712.93 124.00
  C 1713.06 151.00 1705.92 179.20 1676.04 186.25
  C 1665.54 188.73 1650.14 188.39 1640.85 183.53
  C 1628.19 176.91 1623.43 161.83 1623.10 147.99
  Q 1622.81 135.87 1621.97 123.75
  C 1621.10 111.18 1615.90 97.51 1600.24 99.72
  C 1594.21 100.57 1589.72 106.44 1587.39 111.57
  C 1577.73 132.81 1573.23 157.42 1571.01 180.51
  Q 1569.37 197.59 1568.77 214.62
  A 0.39 0.39 0.0 0 0 1569.22 215.02
  C 1593.74 210.80 1619.07 208.97 1641.99 220.68
  Q 1657.69 228.70 1659.89 245.83
  C 1661.65 259.50 1655.61 268.49 1645.05 276.32
  C 1624.75 291.38 1597.73 299.20 1573.18 303.73
  Q 1572.66 303.83 1572.69 304.35
  Q 1576.95 396.80 1572.76 483.50
  C 1571.58 507.80 1554.75 528.26 1529.97 530.42
  C 1512.86 531.92 1498.53 525.93 1489.64 510.87
  C 1482.20 498.25 1480.28 485.26 1479.21 470.77
  Q 1476.63 435.91 1474.89 401.00
  C 1473.49 373.16 1473.29 345.54 1473.43 317.67
  Q 1473.43 317.18 1472.94 317.23
  C 1452.01 319.24 1428.94 317.01 1409.78 306.27
  C 1401.59 301.69 1392.36 294.58 1390.24 285.27
  C 1385.60 264.86 1397.97 250.42 1414.81 240.80
  C 1435.14 229.17 1455.92 226.67 1476.97 223.83
  A 0.65 0.64 -4.5 0 0 1477.53 223.18
  Q 1476.56 171.52 1487.24 123.50
  C 1490.99 106.68 1497.50 88.54 1505.05 72.90
  Q 1518.25 45.56 1541.19 25.16
  C 1558.77 9.54 1578.24 2.81 1601.37 0.00
  Z"
/>
<path fill="#02b192" d="
  M 154.84 163.38
  C 142.44 177.21 135.03 194.62 130.00 212.30
  Q 108.52 287.87 115.72 366.23
  Q 117.49 385.51 124.05 402.20
  C 127.46 410.86 135.12 423.42 142.30 428.45
  C 159.86 440.77 186.49 435.56 205.50 429.26
  Q 223.99 423.14 242.76 417.86
  C 254.77 414.48 271.94 411.59 283.25 416.22
  C 293.44 420.39 300.56 429.75 304.22 439.98
  C 309.82 455.64 304.84 475.73 296.05 489.30
  C 273.77 523.72 233.64 546.62 194.00 554.27
  Q 186.20 555.78 176.25 555.89
  C 146.80 556.21 117.77 549.76 93.04 533.43
  C 50.35 505.25 24.11 458.73 12.40 409.52
  C 2.61 368.36 -0.97 324.64 3.40 282.54
  Q 8.98 228.72 26.75 177.50
  C 47.31 118.28 81.28 59.33 138.62 29.43
  C 165.59 15.37 199.24 10.43 228.73 18.89
  C 255.42 26.55 277.05 49.49 289.60 73.42
  C 306.93 106.49 312.72 144.58 313.15 181.50
  C 313.39 202.17 308.72 225.33 296.91 242.15
  C 287.91 254.95 276.09 263.40 260.75 264.20
  C 252.79 264.62 243.73 263.94 236.51 262.18
  C 210.22 255.80 202.35 231.12 201.52 207.17
  Q 201.02 192.83 200.20 178.51
  C 199.62 168.15 197.35 152.77 183.99 151.76
  Q 166.43 150.44 154.84 163.38
  Z"
/>
<path fill="#02b192" d="
  M 1091.36 363.49
  C 1080.90 373.99 1066.96 380.82 1054.86 390.18
  Q 1054.47 390.48 1054.47 390.97
  C 1054.13 413.72 1053.50 442.39 1049.59 467.14
  C 1046.48 486.81 1041.54 506.29 1031.17 522.91
  Q 1019.45 541.70 997.49 541.33
  Q 979.68 541.03 970.72 525.26
  C 956.66 500.51 953.04 470.99 952.31 442.50
  C 951.07 393.81 952.47 346.14 955.11 297.99
  C 956.96 264.13 957.39 228.28 958.09 182.75
  Q 958.67 144.30 966.50 102.56
  C 972.34 71.41 987.50 19.95 1028.50 23.79
  C 1054.15 26.19 1063.05 66.16 1065.94 86.87
  C 1073.07 137.98 1069.99 189.86 1069.09 241.25
  Q 1068.95 249.15 1070.13 256.13
  A 1.22 1.22 0.0 0 0 1071.79 257.06
  C 1080.67 253.48 1088.85 243.92 1095.18 236.92
  C 1119.12 210.43 1142.36 183.13 1169.22 159.48
  C 1181.05 149.05 1194.94 138.77 1209.51 134.91
  C 1227.18 130.22 1242.14 138.32 1246.37 156.40
  C 1249.56 170.07 1244.39 188.66 1238.19 201.01
  C 1217.86 241.53 1188.47 272.92 1159.37 307.46
  A 0.56 0.55 -41.0 0 0 1159.32 308.11
  C 1185.52 349.57 1208.65 392.80 1226.15 438.72
  C 1233.11 457.00 1240.21 477.95 1239.85 497.24
  Q 1239.68 506.55 1234.70 515.83
  C 1224.99 533.93 1204.60 537.24 1188.21 526.10
  Q 1178.02 519.18 1166.92 505.32
  C 1151.52 486.09 1140.00 466.12 1128.61 443.94
  Q 1108.41 404.59 1092.02 363.63
  Q 1091.79 363.06 1091.36 363.49
  Z"
/>
<path fill="#02b192" d="
  M 1297.42 57.94
  C 1306.84 36.71 1337.94 26.83 1359.28 32.40
  C 1365.39 33.99 1372.67 37.38 1376.38 42.47
  C 1382.83 51.33 1381.41 65.31 1375.95 73.94
  Q 1371.46 81.04 1362.71 87.22
  C 1349.11 96.84 1330.85 101.91 1314.52 96.95
  C 1304.17 93.80 1295.98 87.01 1294.88 75.75
  Q 1293.91 65.84 1297.42 57.94
  Z"
/>
<path fill="#02b192" d="
  M 610.70 351.50
  C 605.02 416.90 584.15 493.72 522.68 529.19
  C 503.87 540.05 479.69 543.82 457.75 542.34
  Q 426.11 540.21 401.52 520.48
  C 373.90 498.33 354.89 467.63 343.90 434.23
  Q 328.34 386.97 330.11 338.76
  C 332.55 272.02 354.85 193.30 413.59 154.32
  Q 436.61 139.04 465.27 136.83
  C 493.67 134.63 519.99 139.69 542.81 157.59
  C 599.01 201.67 616.57 283.99 610.70 351.50
  Z
  M 511.62 379.62
  C 516.16 343.43 514.43 308.01 502.54 273.33
  C 500.08 266.16 497.12 260.15 493.12 254.10
  C 486.59 244.19 476.39 237.26 464.95 243.24
  C 456.19 247.83 449.06 261.20 445.60 270.37
  C 438.79 288.38 434.51 308.60 433.13 327.98
  C 431.41 352.24 434.79 377.92 441.55 401.70
  C 445.09 414.17 450.87 427.72 459.32 437.69
  C 468.57 448.59 483.35 447.29 491.92 436.40
  C 504.51 420.41 509.10 399.79 511.62 379.62
  Z"
/>
<path fill="#02b192" d="
  M 799.74 539.75
  C 767.44 546.67 734.21 541.91 707.62 520.91
  C 659.24 482.70 637.50 417.36 635.85 357.50
  Q 634.27 300.43 652.04 247.74
  C 664.17 211.79 685.08 178.57 716.49 156.20
  C 742.98 137.34 778.93 132.25 810.26 139.20
  C 847.40 147.44 876.82 180.24 892.78 213.75
  C 912.96 256.09 920.21 303.83 916.36 350.37
  C 910.93 416.13 890.17 492.36 829.50 528.48
  Q 816.64 536.13 799.74 539.75
  Z
  M 739.22 321.36
  C 736.67 345.17 739.36 369.85 744.95 393.26
  C 748.76 409.25 761.59 451.94 786.01 444.47
  C 807.68 437.84 815.65 395.46 817.63 376.75
  C 821.44 340.60 819.82 303.41 806.59 269.14
  Q 802.42 258.34 795.11 249.39
  C 786.33 238.65 771.97 238.17 763.26 249.29
  Q 755.65 259.00 751.27 270.63
  Q 742.02 295.20 739.22 321.36
  Z"
/>
<path fill="#02b192" d="
  M 1379.12 439.26
  C 1375.40 468.02 1363.87 519.11 1327.73 523.63
  C 1317.20 524.95 1308.87 522.03 1302.46 513.76
  C 1289.79 497.40 1284.06 475.81 1281.12 455.73
  Q 1275.10 414.65 1274.64 373.13
  Q 1274.46 356.98 1274.65 310.25
  Q 1274.81 269.72 1280.70 229.64
  C 1284.52 203.62 1294.19 160.31 1319.43 146.39
  C 1336.45 137.00 1356.58 141.03 1365.87 159.42
  C 1379.55 186.49 1384.22 219.42 1385.19 248.25
  C 1386.11 275.79 1386.50 300.44 1385.26 325.77
  Q 1384.75 336.07 1384.72 345.75
  C 1384.63 378.86 1383.13 408.26 1379.12 439.26
  Z"
/>
<path fill="#02b192" d="
  M 1845.62 717.00
  L 1822.00 717.00
  C 1788.21 712.93 1752.16 700.94 1728.10 675.65
  Q 1717.25 664.25 1715.75 648.76
  C 1713.88 629.52 1730.29 613.08 1747.61 609.30
  C 1759.40 606.73 1773.71 611.66 1786.00 616.94
  C 1794.42 620.55 1809.16 625.84 1821.02 625.40
  C 1834.45 624.91 1844.89 619.64 1853.67 609.67
  Q 1864.44 597.46 1870.57 584.02
  C 1882.73 557.38 1888.70 528.12 1892.60 499.23
  Q 1897.44 463.42 1898.92 427.30
  Q 1898.95 426.65 1898.59 427.19
  Q 1885.64 447.00 1870.40 463.91
  C 1861.53 473.76 1850.55 483.94 1839.16 489.88
  C 1817.90 500.96 1791.47 502.73 1768.49 496.18
  C 1750.78 491.13 1734.22 478.83 1722.30 464.69
  C 1699.77 437.94 1688.36 400.45 1683.01 365.74
  Q 1675.09 314.27 1680.54 264.43
  C 1682.91 242.75 1686.13 221.73 1692.31 200.74
  C 1696.86 185.27 1706.39 162.94 1720.44 153.75
  C 1731.80 146.31 1749.78 145.64 1760.15 156.11
  C 1769.30 165.36 1775.05 180.38 1778.13 192.78
  Q 1783.48 214.33 1785.06 236.51
  Q 1787.46 270.09 1786.47 303.76
  Q 1786.03 318.63 1786.84 333.50
  C 1788.49 363.94 1807.15 377.65 1837.25 373.02
  C 1865.04 368.75 1875.13 338.81 1877.12 314.99
  C 1877.69 308.18 1878.28 298.41 1878.28 289.98
  C 1878.27 273.53 1878.49 257.08 1878.59 240.63
  C 1878.76 213.61 1883.84 155.51 1922.76 155.11
  C 1937.24 154.97 1948.38 161.76 1957.05 173.44
  C 1972.98 194.89 1981.36 223.57 1986.33 249.50
  C 1996.67 303.38 1999.96 359.01 1997.76 413.76
  C 1995.42 472.30 1989.65 530.67 1972.48 586.96
  C 1954.71 645.23 1917.27 708.97 1850.23 716.34
  Q 1847.91 716.59 1845.62 717.00
  Z"
/>
</svg>
